<svg xmlns="http://www.w3.org/2000/svg" viewBox="5 5 98 125" width="98" height="125">
  <defs>
    <linearGradient id="aurScut" x1="0%" y1="0%" x2="100%" y2="100%">
      <stop offset="0%" style="stop-color:#e8c96a;stop-opacity:1" />
      <stop offset="100%" style="stop-color:#c8a84b;stop-opacity:1" />
    </linearGradient>
  </defs>

  <!-- Scut exterior -->
  <path d="M13 10 L95 10 L95 75 Q95 110 54 125 Q13 110 13 75 Z"
        fill="rgba(255,255,255,0.08)" />
  <path d="M13 10 L95 10 L95 75 Q95 110 54 125 Q13 110 13 75 Z"
        fill="none" stroke="url(#aurScut)" stroke-width="2.5" />

  <!-- Scut interior -->
  <path d="M20 17 L88 17 L88 74 Q88 103 54 116 Q20 103 20 74 Z"
        fill="none" stroke="rgba(200,168,75,0.3)" stroke-width="1.5" />

  <!-- AFA -->
  <text x="54" y="82"
        font-family="Georgia, serif"
        font-size="38"
        font-weight="900"
        fill="url(#aurScut)"
        text-anchor="middle"
        letter-spacing="-1">AFA</text>

  <!-- Linie și puncte decorative -->
  <line x1="30" y1="90" x2="78" y2="90" stroke="#c8a84b" stroke-width="1.2" opacity="0.6"/>
  <circle cx="32" cy="26" r="2" fill="#c8a84b" opacity="0.7"/>
  <circle cx="76" cy="26" r="2" fill="#c8a84b" opacity="0.7"/>
</svg>
